{
  "accessors": [
    {
      "bufferView": 2,
      "componentType": 5126,
      "count": 643,
      "max": [
        1.2122299671173096,
        2.044705390930176,
        1.6817563772201538
      ],
      "min": [
        -1.2122304439544678,
        -0.019772589206695557,
        -1.8486075401306152
      ],
      "type": "VEC3"
    },
    {
      "bufferView": 2,
      "byteOffset": 7716,
      "componentType": 5126,
      "count": 643,
      "max": [
        1.0,
        1.0,
        1.0
      ],
      "min": [
        -1.0,
        -1.0,
        -1.0
      ],
      "type": "VEC3"
    },
    {
      "bufferView": 1,
      "componentType": 5126,
      "count": 643,
      "max": [
        0.9301365613937378,
        0.9995436072349548
      ],
      "min": [
        0.0004563947441056371,
        0.0004563947441056371
      ],
      "type": "VEC2"
    },
    {
      "bufferView": 0,
      "componentType": 5125,
      "count": 1686,
      "type": "SCALAR"
    },
    {
      "bufferView": 2,
      "byteOffset": 15432,
      "componentType": 5126,
      "count": 72,
      "max": [
        0.03988555446267128,
        -0.8043464422225952,
        0.5542287230491638
      ],
      "min": [
        -0.47239136695861816,
        -1.2639492750167847,
        -0.5542287826538086
      ],
      "type": "VEC3"
    },
    {
      "bufferView": 2,
      "byteOffset": 16296,
      "componentType": 5126,
      "count": 72,
      "max": [
        4.5164432549427147e-07,
        1.0,
        1.0
      ],
      "min": [
        -1.0,
        -1.0,
        -1.0
      ],
      "type": "VEC3"
    },
    {
      "bufferView": 1,
      "byteOffset": 5144,
      "componentType": 5126,
      "count": 72,
      "max": [
        0.8875766396522522,
        0.9065357446670532
      ],
      "min": [
        0.0004563947441056371,
        0.5389695763587952
      ],
      "type": "VEC2"
    },
    {
      "bufferView": 0,
      "byteOffset": 6744,
      "componentType": 5125,
      "count": 150,
      "type": "SCALAR"
    },
    {
      "bufferView": 2,
      "byteOffset": 17160,
      "componentType": 5126,
      "count": 496,
      "max": [
        1.107098937034607,
        -0.2811514735221863,
        2.276304006576538
      ],
      "min": [
        -1.107098937034607,
        -0.996986985206604,
        1.9824966192245483
      ],
      "type": "VEC3"
    },
    {
      "bufferView": 2,
      "byteOffset": 23112,
      "componentType": 5126,
      "count": 496,
      "max": [
        0.9247138500213623,
        1.0,
        0.9863978028297424
      ],
      "min": [
        -0.9247142672538757,
        -1.0,
        -0.9822079539299011
      ],
      "type": "VEC3"
    },
    {
      "bufferView": 1,
      "byteOffset": 5720,
      "componentType": 5126,
      "count": 496,
      "max": [
        0.2981303334236145,
        0.8948400020599365
      ],
      "min": [
        0.1944364607334137,
        0.5429885983467102
      ],
      "type": "VEC2"
    },
    {
      "bufferView": 0,
      "byteOffset": 7344,
      "componentType": 5125,
      "count": 1824,
      "type": "SCALAR"
    },
    {
      "bufferView": 2,
      "byteOffset": 29064,
      "componentType": 5126,
      "count": 770,
      "max": [
        1.0858782529830933,
        1.13503897190094,
        2.121040105819702
      ],
      "min": [
        -1.0858782529830933,
        0.07726073265075684,
        0.45113280415534973
      ],
      "type": "VEC3"
    },
    {
      "bufferView": 2,
      "byteOffset": 38304,
      "componentType": 5126,
      "count": 770,
      "max": [
        0.9826233386993408,
        0.9231290221214294,
        0.9839314222335815
      ],
      "min": [
        -0.9826233386993408,
        -0.9189104437828064,
        -0.9821459054946899
      ],
      "type": "VEC3"
    },
    {
      "bufferView": 1,
      "byteOffset": 9688,
      "componentType": 5126,
      "count": 770,
      "max": [
        0.6624194383621216,
        0.8422812223434448
      ],
      "min": [
        0.2680486738681793,
        0.4802014231681824
      ],
      "type": "VEC2"
    },
    {
      "bufferView": 0,
      "byteOffset": 14640,
      "componentType": 5125,
      "count": 2688,
      "type": "SCALAR"
    },
    {
      "bufferView": 2,
      "byteOffset": 47544,
      "componentType": 5126,
      "count": 80,
      "max": [
        0.15283115208148956,
        0.09690052270889282,
        -0.14287057518959045
      ],
      "min": [
        -0.15283115208148956,
        -0.00045958301052451134,
        -0.1863003522157669
      ],
      "type": "VEC3"
    },
    {
      "bufferView": 2,
      "byteOffset": 48504,
      "componentType": 5126,
      "count": 80,
      "max": [
        1.0,
        1.0,
        1.0
      ],
      "min": [
        -1.0,
        -0.9669445157051086,
        -1.0
      ],
      "type": "VEC3"
    },
    {
      "bufferView": 1,
      "byteOffset": 15848,
      "componentType": 5126,
      "count": 80,
      "max": [
        0.6625308990478516,
        0.7682176232337952
      ],
      "min": [
        0.29571962356567383,
        0.45350560545921326
      ],
      "type": "VEC2"
    },
    {
      "bufferView": 0,
      "byteOffset": 25392,
      "componentType": 5125,
      "count": 228,
      "type": "SCALAR"
    },
    {
      "bufferView": 2,
      "byteOffset": 49464,
      "componentType": 5126,
      "count": 360,
      "max": [
        1.4416909217834473,
        -1.1303472518920898,
        1.3761066198349
      ],
      "min": [
        -1.4416909217834473,
        -1.239891529083252,
        -2.9015145301818848
      ],
      "type": "VEC3"
    },
    {
      "bufferView": 2,
      "byteOffset": 53784,
      "componentType": 5126,
      "count": 360,
      "max": [
        1.0,
        0.0,
        1.0
      ],
      "min": [
        -1.0,
        -0.7347885370254517,
        -1.0
      ],
      "type": "VEC3"
    },
    {
      "bufferView": 1,
      "byteOffset": 16488,
      "componentType": 5126,
      "count": 360,
      "max": [
        0.8925563097000122,
        0.8365709185600281
      ],
      "min": [
        0.2836267650127411,
        0.6274610161781311
      ],
      "type": "VEC2"
    },
    {
      "bufferView": 0,
      "byteOffset": 26304,
      "componentType": 5125,
      "count": 432,
      "type": "SCALAR"
    },
    {
      "bufferView": 2,
      "byteOffset": 58104,
      "componentType": 5126,
      "count": 156,
      "max": [
        0.41292691230773926,
        1.087742805480957,
        1.087742567062378
      ],
      "min": [
        -0.41292691230773926,
        -1.0877431631088257,
        -1.0877432823181152
      ],
      "type": "VEC3"
    },
    {
      "bufferView": 2,
      "byteOffset": 59976,
      "componentType": 5126,
      "count": 156,
      "max": [
        1.0,
        1.0,
        1.0
      ],
      "min": [
        -1.0,
        -1.0,
        -1.0
      ],
      "type": "VEC3"
    },
    {
      "bufferView": 1,
      "byteOffset": 19368,
      "componentType": 5126,
      "count": 156,
      "max": [
        0.9765161871910095,
        0.2594943344593048
      ],
      "min": [
        0.8532408475875854,
        0.0004563947441056371
      ],
      "type": "VEC2"
    },
    {
      "bufferView": 0,
      "byteOffset": 28032,
      "componentType": 5125,
      "count": 432,
      "type": "SCALAR"
    },
    {
      "bufferView": 2,
      "byteOffset": 61848,
      "componentType": 5126,
      "count": 675,
      "max": [
        0.21384674310684204,
        0.44313666224479675,
        3.0466020107269287
      ],
      "min": [
        -0.21384671330451965,
        -0.5942941904067993,
        -1.9445438385009766
      ],
      "type": "VEC3"
    },
    {
      "bufferView": 2,
      "byteOffset": 69948,
      "componentType": 5126,
      "count": 675,
      "max": [
        1.0,
        0.9978113174438477,
        0.9936028122901917
      ],
      "min": [
        -1.0,
        -0.9935926795005798,
        -0.9935930967330933
      ],
      "type": "VEC3"
    },
    {
      "bufferView": 1,
      "byteOffset": 20616,
      "componentType": 5126,
      "count": 675,
      "max": [
        0.927050769329071,
        0.9070166945457458
      ],
      "min": [
        0.07976311445236206,
        0.36968812346458435
      ],
      "type": "VEC2"
    },
    {
      "bufferView": 0,
      "byteOffset": 29760,
      "componentType": 5125,
      "count": 1878,
      "type": "SCALAR"
    },
    {
      "bufferView": 2,
      "byteOffset": 78048,
      "componentType": 5126,
      "count": 91,
      "max": [
        -0.054012831300497055,
        -0.05114254355430603,
        1.4815691709518433
      ],
      "min": [
        -0.17597706615924835,
        -0.2049107700586319,
        -1.2875689268112183
      ],
      "type": "VEC3"
    },
    {
      "bufferView": 2,
      "byteOffset": 79140,
      "componentType": 5126,
      "count": 91,
      "max": [
        0.9999824166297913,
        0.8814557790756226,
        0.9999908208847046
      ],
      "min": [
        -0.9999904632568359,
        -0.8746048212051392,
        -0.9996061325073242
      ],
      "type": "VEC3"
    },
    {
      "bufferView": 1,
      "byteOffset": 26016,
      "componentType": 5126,
      "count": 91,
      "max": [
        0.6566432118415833,
        0.8895766735076904
      ],
      "min": [
        0.1944364607334137,
        0.4802014231681824
      ],
      "type": "VEC2"
    },
    {
      "bufferView": 0,
      "byteOffset": 37272,
      "componentType": 5125,
      "count": 288,
      "type": "SCALAR"
    },
    {
      "bufferView": 2,
      "byteOffset": 80232,
      "componentType": 5126,
      "count": 160,
      "max": [
        0.22505338490009308,
        0.2712523639202118,
        0.5047905445098877
      ],
      "min": [
        -0.22505338490009308,
        -0.7055973410606384,
        -0.05481559410691261
      ],
      "type": "VEC3"
    },
    {
      "bufferView": 2,
      "byteOffset": 82152,
      "componentType": 5126,
      "count": 160,
      "max": [
        1.0,
        0.9983088970184326,
        1.0
      ],
      "min": [
        -1.0,
        -0.9983088970184326,
        -1.0
      ],
      "type": "VEC3"
    },
    {
      "bufferView": 1,
      "byteOffset": 26744,
      "componentType": 5126,
      "count": 160,
      "max": [
        0.6409951448440552,
        0.6352843642234802
      ],
      "min": [
        0.1687893569469452,
        0.07105593383312225
      ],
      "type": "VEC2"
    },
    {
      "bufferView": 0,
      "byteOffset": 38424,
      "componentType": 5125,
      "count": 324,
      "type": "SCALAR"
    },
    {
      "bufferView": 2,
      "byteOffset": 84072,
      "componentType": 5126,
      "count": 48,
      "max": [
        0.2420685887336731,
        0.013162042945623398,
        0.06511051952838898
      ],
      "min": [
        -0.2420685887336731,
        -0.4975252151489258,
        -0.29950839281082153
      ],
      "type": "VEC3"
    },
    {
      "bufferView": 2,
      "byteOffset": 84648,
      "componentType": 5126,
      "count": 48,
      "max": [
        0.0,
        1.0,
        1.0
      ],
      "min": [
        0.0,
        -1.0,
        -1.0
      ],
      "type": "VEC3"
    },
    {
      "bufferView": 1,
      "byteOffset": 28024,
      "componentType": 5126,
      "count": 48,
      "max": [
        0.2914625108242035,
        0.8026073575019836
      ],
      "min": [
        0.2684877812862396,
        0.767081081867218
      ],
      "type": "VEC2"
    },
    {
      "bufferView": 0,
      "byteOffset": 39720,
      "componentType": 5125,
      "count": 72,
      "type": "SCALAR"
    },
    {
      "bufferView": 2,
      "byteOffset": 85224,
      "componentType": 5126,
      "count": 592,
      "max": [
        1.8692474365234375,
        0.4306758940219879,
        1.8692474365234375
      ],
      "min": [
        -1.8692474365234375,
        -0.6182241439819336,
        -1.8692474365234375
      ],
      "type": "VEC3"
    },
    {
      "bufferView": 2,
      "byteOffset": 92328,
      "componentType": 5126,
      "count": 592,
      "max": [
        1.0,
        1.0,
        1.0
      ],
      "min": [
        -1.0,
        -1.0,
        -1.0
      ],
      "type": "VEC3"
    },
    {
      "bufferView": 1,
      "byteOffset": 28408,
      "componentType": 5126,
      "count": 592,
      "max": [
        0.8836175799369812,
        0.8936566710472107
      ],
      "min": [
        0.0004563947441056371,
        0.0004563947441056371
      ],
      "type": "VEC2"
    },
    {
      "bufferView": 0,
      "byteOffset": 40008,
      "componentType": 5125,
      "count": 1338,
      "type": "SCALAR"
    }
  ],
  "asset": {
    "extras": {
      "author": "Lemper_Studio (https://sketchfab.com/Lemper_Studio)",
      "license": "CC-BY-4.0 (http://creativecommons.org/licenses/by/4.0/)",
      "source": "https://sketchfab.com/3d-models/hpj-26-76mm-naval-gun-0c88bdaddd104020bcd1c978e0dbb3e5",
      "title": "H/PJ 26 76mm Naval Gun"
    },
    "generator": "Sketchfab-16.72.0",
    "version": "2.0"
  },
  "bufferViews": [
    {
      "buffer": 0,
      "byteLength": 45360,
      "name": "floatBufferViews",
      "target": 34963
    },
    {
      "buffer": 0,
      "byteLength": 33144,
      "byteOffset": 45360,
      "byteStride": 8,
      "name": "floatBufferViews",
      "target": 34962
    },
    {
      "buffer": 0,
      "byteLength": 99432,
      "byteOffset": 78504,
      "byteStride": 12,
      "name": "floatBufferViews",
      "target": 34962
    }
  ],
  "buffers": [
    {
      "byteLength": 177936,
      "uri": "scene.bin"
    }
  ],
  "images": [
    {
      "uri": "textures/H_PJ_26_baseColor.png"
    },
    {
      "uri": "textures/H_PJ_26_metallicRoughness.png"
    }
  ],
  "materials": [
    {
      "doubleSided": true,
      "name": "H_PJ_26",
      "occlusionTexture": {
        "index": 1
      },
      "pbrMetallicRoughness": {
        "baseColorTexture": {
          "index": 0
        },
        "metallicFactor": 0.0,
        "metallicRoughnessTexture": {
          "index": 1
        },
        "roughnessFactor": 0.5
      }
    }
  ],
  "meshes": [
    {
      "name": "Object_0",
      "primitives": [
        {
          "attributes": {
            "NORMAL": 1,
            "POSITION": 0,
            "TEXCOORD_0": 2
          },
          "indices": 3,
          "material": 0,
          "mode": 4
        }
      ]
    },
    {
      "name": "Object_1",
      "primitives": [
        {
          "attributes": {
            "NORMAL": 5,
            "POSITION": 4,
            "TEXCOORD_0": 6
          },
          "indices": 7,
          "material": 0,
          "mode": 4
        }
      ]
    },
    {
      "name": "Object_2",
      "primitives": [
        {
          "attributes": {
            "NORMAL": 9,
            "POSITION": 8,
            "TEXCOORD_0": 10
          },
          "indices": 11,
          "material": 0,
          "mode": 4
        }
      ]
    },
    {
      "name": "Object_3",
      "primitives": [
        {
          "attributes": {
            "NORMAL": 13,
            "POSITION": 12,
            "TEXCOORD_0": 14
          },
          "indices": 15,
          "material": 0,
          "mode": 4
        }
      ]
    },
    {
      "name": "Object_4",
      "primitives": [
        {
          "attributes": {
            "NORMAL": 17,
            "POSITION": 16,
            "TEXCOORD_0": 18
          },
          "indices": 19,
          "material": 0,
          "mode": 4
        }
      ]
    },
    {
      "name": "Object_5",
      "primitives": [
        {
          "attributes": {
            "NORMAL": 21,
            "POSITION": 20,
            "TEXCOORD_0": 22
          },
          "indices": 23,
          "material": 0,
          "mode": 4
        }
      ]
    },
    {
      "name": "Object_6",
      "primitives": [
        {
          "attributes": {
            "NORMAL": 25,
            "POSITION": 24,
            "TEXCOORD_0": 26
          },
          "indices": 27,
          "material": 0,
          "mode": 4
        }
      ]
    },
    {
      "name": "Object_7",
      "primitives": [
        {
          "attributes": {
            "NORMAL": 29,
            "POSITION": 28,
            "TEXCOORD_0": 30
          },
          "indices": 31,
          "material": 0,
          "mode": 4
        }
      ]
    },
    {
      "name": "Object_8",
      "primitives": [
        {
          "attributes": {
            "NORMAL": 33,
            "POSITION": 32,
            "TEXCOORD_0": 34
          },
          "indices": 35,
          "material": 0,
          "mode": 4
        }
      ]
    },
    {
      "name": "Object_9",
      "primitives": [
        {
          "attributes": {
            "NORMAL": 37,
            "POSITION": 36,
            "TEXCOORD_0": 38
          },
          "indices": 39,
          "material": 0,
          "mode": 4
        }
      ]
    },
    {
      "name": "Object_10",
      "primitives": [
        {
          "attributes": {
            "NORMAL": 41,
            "POSITION": 40,
            "TEXCOORD_0": 42
          },
          "indices": 43,
          "material": 0,
          "mode": 4
        }
      ]
    },
    {
      "name": "Object_11",
      "primitives": [
        {
          "attributes": {
            "NORMAL": 45,
            "POSITION": 44,
            "TEXCOORD_0": 46
          },
          "indices": 47,
          "material": 0,
          "mode": 4
        }
      ]
    }
  ],
  "nodes": [
    {
      "children": [
        1
      ],
      "matrix": [
        1.0,
        0.0,
        0.0,
        0.0,
        0.0,
        2.220446049250313e-16,
        -1.0,
        0.0,
        0.0,
        1.0,
        2.220446049250313e-16,
        0.0,
        0.0,
        0.0,
        0.0,
        1.0
      ],
      "name": "Sketchfab_model"
    },
    {
      "children": [
        2
      ],
      "name": "root"
    },
    {
      "children": [
        3
      ],
      "matrix": [
        1.0,
        0.0,
        0.0,
        0.0,
        0.0,
        2.220446049250313e-16,
        1.0,
        0.0,
        0.0,
        -1.0,
        2.220446049250313e-16,
        0.0,
        0.0,
        0.0,
        0.0,
        1.0
      ],
      "name": "GLTF_SceneRootNode"
    },
    {
      "children": [
        4,
        22,
        26
      ],
      "matrix": [
        1.2405970096588135,
        0.0,
        0.0,
        0.0,
        0.0,
        1.2405970096588135,
        0.0,
        0.0,
        0.0,
        0.0,
        1.2405970096588135,
        0.0,
        0.0,
        0.0,
        0.0,
        1.0
      ],
      "name": "H_PJ 26_12"
    },
    {
      "children": [
        5,
        6,
        8,
        10,
        12,
        14,
        16
      ],
      "matrix": [
        1.0,
        0.0,
        0.0,
        0.0,
        0.0,
        1.0,
        0.0,
        0.0,
        0.0,
        0.0,
        1.0,
        0.0,
        0.0,
        1.0488981008529663,
        6.149776254460448e-06,
        1.0
      ],
      "name": "RotZ_8"
    },
    {
      "mesh": 0,
      "name": "Object_5"
    },
    {
      "children": [
        7
      ],
      "matrix": [
        1.358921326639023e-07,
        -0.8060634136199836,
        -0.0,
        0.0,
        0.8060634136199836,
        1.358921326639023e-07,
        0.0,
        0.0,
        0.0,
        0.0,
        0.8060634136199951,
        0.0,
        0.028098685666918755,
        1.6743314266204834,
        -0.3788260519504547,
        1.0
      ],
      "name": "Cylinder.005_0"
    },
    {
      "mesh": 1,
      "name": "Object_7"
    },
    {
      "children": [
        9
      ],
      "matrix": [
        0.8060634136199951,
        0.0,
        0.0,
        0.0,
        0.0,
        0.8060634136199951,
        0.0,
        0.0,
        0.0,
        0.0,
        0.8060634136199951,
        0.0,
        0.0,
        0.9796586036682129,
        -0.19813953340053558,
        1.0
      ],
      "name": "Grip_1"
    },
    {
      "mesh": 2,
      "name": "Object_9"
    },
    {
      "children": [
        11
      ],
      "matrix": [
        0.8060634136199951,
        0.0,
        0.0,
        0.0,
        0.0,
        0.8060634136199951,
        0.0,
        0.0,
        0.0,
        0.0,
        0.8060634136199951,
        0.0,
        0.0,
        0.9796586036682129,
        -0.19813941419124603,
        1.0
      ],
      "name": "Grip.001_2"
    },
    {
      "mesh": 3,
      "name": "Object_11"
    },
    {
      "children": [
        13
      ],
      "matrix": [
        0.8060634136199951,
        0.0,
        0.0,
        0.0,
        0.0,
        0.8060634136199951,
        0.0,
        0.0,
        0.0,
        0.0,
        0.8060634136199951,
        0.0,
        0.544826090335846,
        2.044409990310669,
        -0.15941189229488373,
        1.0
      ],
      "name": "Grip.002_3"
    },
    {
      "mesh": 4,
      "name": "Object_13"
    },
    {
      "children": [
        15
      ],
      "matrix": [
        0.8060634136199951,
        0.0,
        0.0,
        0.0,
        0.0,
        0.8060634136199951,
        0.0,
        0.0,
        0.0,
        0.0,
        0.8060634136199951,
        0.0,
        0.0,
        0.9796586036682129,
        0.5298919081687927,
        1.0
      ],
      "name": "Part_4"
    },
    {
      "mesh": 5,
      "name": "Object_15"
    },
    {
      "children": [
        17,
        18,
        20
      ],
      "matrix": [
        0.8060634136199951,
        0.0,
        0.0,
        0.0,
        0.0,
        0.8060634136199951,
        0.0,
        0.0,
        0.0,
        0.0,
        0.8060634136199951,
        0.0,
        0.0,
        0.893549919128418,
        0.22538158297538757,
        1.0
      ],
      "name": "RotX_7"
    },
    {
      "mesh": 6,
      "name": "Object_17"
    },
    {
      "children": [
        19
      ],
      "matrix": [
        1.0,
        0.0,
        0.0,
        0.0,
        0.0,
        1.0,
        0.0,
        0.0,
        0.0,
        0.0,
        1.0,
        0.0,
        0.0,
        0.5604085922241211,
        2.7744455337524414,
        1.0
      ],
      "name": "Barrel_5"
    },
    {
      "mesh": 7,
      "name": "Object_19"
    },
    {
      "children": [
        21
      ],
      "matrix": [
        1.0,
        0.0,
        0.0,
        0.0,
        -0.0,
        0.9932174294963962,
        -0.11627182695980677,
        0.0,
        0.0,
        0.11627182695980677,
        0.9932174294963962,
        0.0,
        0.0,
        0.7827353477478027,
        1.985142707824707,
        1.0
      ],
      "name": "BezierCurve_6"
    },
    {
      "mesh": 8,
      "name": "Object_21"
    },
    {
      "children": [
        23,
        24
      ],
      "matrix": [
        1.0,
        0.0,
        0.0,
        0.0,
        0.0,
        0.8995363568297063,
        0.4368459027409313,
        0.0,
        0.0,
        -0.4368459027409313,
        0.8995363568297063,
        0.0,
        0.0,
        0.6014496684074402,
        -2.024075746536255,
        1.0
      ],
      "name": "Stair_10"
    },
    {
      "mesh": 9,
      "name": "Object_23"
    },
    {
      "children": [
        25
      ],
      "matrix": [
        0.8060635328292847,
        0.0,
        0.0,
        0.0,
        -0.0,
        0.7250834434673437,
        -0.3521255727247975,
        0.0,
        0.0,
        0.3521255727247975,
        0.7250834434673437,
        0.0,
        0.0,
        -0.01447451114654541,
        0.007445931434631348,
        1.0
      ],
      "name": "Step_9"
    },
    {
      "mesh": 10,
      "name": "Object_25"
    },
    {
      "children": [
        27
      ],
      "matrix": [
        1.0,
        0.0,
        0.0,
        0.0,
        0.0,
        1.0,
        0.0,
        0.0,
        0.0,
        0.0,
        1.0,
        0.0,
        0.0,
        0.6182231903076172,
        6.149776254460448e-06,
        1.0
      ],
      "name": "Stand_11"
    },
    {
      "mesh": 11,
      "name": "Object_27"
    }
  ],
  "samplers": [
    {
      "magFilter": 9729,
      "minFilter": 9987,
      "wrapS": 10497,
      "wrapT": 10497
    }
  ],
  "scene": 0,
  "scenes": [
    {
      "name": "Sketchfab_Scene",
      "nodes": [
        0
      ]
    }
  ],
  "textures": [
    {
      "sampler": 0,
      "source": 0
    },
    {
      "sampler": 0,
      "source": 1
    }
  ]
}
